<svg xmlns="http://www.w3.org/2000/svg" xmlns:xlink="http://www.w3.org/1999/xlink" width="2912" zoomAndPan="magnify" viewBox="0 0 2184 1619.99993" height="2160" preserveAspectRatio="xMidYMid meet" version="1.0"><defs><g/><clipPath id="410d8845c1"><path d="M 588 516.796875 L 969 516.796875 L 969 912 L 588 912 Z M 588 516.796875 " clip-rule="nonzero"/></clipPath></defs><g clip-path="url(#410d8845c1)"><path fill="#ffffff" d="M 788.949219 895.136719 C 793.511719 895.136719 797.210938 898.835938 797.210938 903.398438 C 797.210938 907.578125 794.101562 911.035156 790.070312 911.582031 L 788.949219 911.660156 L 766.921875 911.660156 C 762.359375 911.660156 758.660156 907.960938 758.660156 903.398438 C 758.660156 899.214844 761.769531 895.757812 765.800781 895.210938 L 766.921875 895.136719 Z M 810.980469 873.109375 C 815.539062 873.109375 819.238281 876.808594 819.238281 881.367188 C 819.238281 885.550781 816.132812 889.007812 812.101562 889.554688 L 810.980469 889.628906 L 744.894531 889.628906 C 740.332031 889.628906 736.632812 885.929688 736.632812 881.367188 C 736.632812 877.1875 739.738281 873.730469 743.773438 873.183594 L 744.894531 873.109375 Z M 821.992188 851.078125 C 826.554688 851.078125 830.253906 854.777344 830.253906 859.339844 C 830.253906 863.523438 827.144531 866.980469 823.113281 867.527344 L 821.992188 867.601562 L 733.878906 867.601562 C 729.316406 867.601562 725.617188 863.902344 725.617188 859.339844 C 725.617188 855.160156 728.726562 851.703125 732.757812 851.15625 L 733.878906 851.078125 Z M 777.9375 597.75 C 837.246094 597.75 885.324219 645.832031 885.324219 705.140625 C 885.324219 730.460938 870.230469 757.832031 840.664062 787.582031 C 834.558594 793.726562 830.90625 801.859375 830.339844 810.449219 L 830.261719 812.804688 L 830.253906 831.8125 C 830.25 838.933594 824.835938 844.792969 817.894531 845.5 L 816.484375 845.574219 L 739.386719 845.574219 C 732.257812 845.574219 726.394531 840.15625 725.6875 833.210938 L 725.617188 831.804688 L 725.617188 812.816406 C 725.617188 803.359375 721.875 794.289062 715.210938 787.582031 C 685.644531 757.835938 670.546875 730.460938 670.546875 705.140625 C 670.546875 645.832031 718.625 597.75 777.9375 597.75 Z M 679.105469 794.734375 C 682.0625 797.691406 682.308594 802.335938 679.84375 805.574219 L 679.105469 806.417969 L 655.742188 829.785156 C 652.515625 833.007812 647.285156 833.007812 644.058594 829.785156 C 641.101562 826.824219 640.855469 822.183594 643.320312 818.945312 L 644.058594 818.101562 L 667.421875 794.734375 C 670.648438 791.511719 675.878906 791.511719 679.105469 794.734375 Z M 888.542969 793.996094 L 889.390625 794.734375 L 912.753906 818.101562 C 915.980469 821.328125 915.980469 826.558594 912.753906 829.785156 C 909.796875 832.742188 905.15625 832.988281 901.917969 830.523438 L 901.070312 829.785156 L 877.707031 806.417969 C 874.480469 803.191406 874.480469 797.960938 877.707031 794.734375 C 880.664062 791.777344 885.304688 791.53125 888.542969 793.996094 Z M 777.9375 614.273438 C 727.75 614.273438 687.066406 654.953125 687.066406 705.140625 C 687.066406 725.277344 700.144531 748.988281 726.929688 775.9375 C 736.019531 785.085938 741.390625 797.242188 742.066406 810.058594 L 742.136719 812.816406 L 742.128906 829.050781 L 813.730469 829.050781 L 813.738281 812.800781 C 813.742188 800.828125 817.847656 789.277344 825.28125 780.03125 L 827.054688 777.941406 L 828.945312 775.9375 C 855.726562 748.984375 868.804688 725.277344 868.804688 705.140625 C 868.804688 654.953125 828.121094 614.273438 777.9375 614.273438 Z M 629.714844 687.175781 C 634.273438 687.175781 637.972656 690.871094 637.972656 695.433594 C 637.972656 699.617188 634.867188 703.074219 630.832031 703.621094 L 629.714844 703.695312 L 596.671875 703.695312 C 592.109375 703.695312 588.410156 699.996094 588.410156 695.433594 C 588.410156 691.253906 591.515625 687.796875 595.550781 687.25 L 596.671875 687.175781 Z M 960.144531 687.175781 C 964.703125 687.175781 968.402344 690.871094 968.402344 695.433594 C 968.402344 699.617188 965.296875 703.074219 961.261719 703.621094 L 960.144531 703.695312 L 927.101562 703.695312 C 922.539062 703.695312 918.839844 699.996094 918.839844 695.433594 C 918.839844 691.253906 921.945312 687.796875 925.980469 687.25 L 927.101562 687.175781 Z M 788.949219 630.792969 C 823.925781 630.792969 852.28125 659.148438 852.28125 694.125 C 852.28125 698.6875 848.582031 702.386719 844.023438 702.386719 C 839.460938 702.386719 835.761719 698.6875 835.761719 694.125 C 835.761719 668.273438 814.804688 647.316406 788.949219 647.316406 C 784.386719 647.316406 780.6875 643.617188 780.6875 639.054688 C 780.6875 634.492188 784.386719 630.792969 788.949219 630.792969 Z M 654.894531 560.347656 L 655.742188 561.085938 L 679.105469 584.453125 C 682.332031 587.679688 682.332031 592.910156 679.105469 596.132812 C 676.148438 599.089844 671.507812 599.339844 668.269531 596.875 L 667.421875 596.132812 L 644.058594 572.769531 C 640.832031 569.542969 640.832031 564.3125 644.058594 561.085938 C 647.015625 558.128906 651.65625 557.882812 654.894531 560.347656 Z M 912.753906 561.085938 C 915.710938 564.042969 915.957031 568.6875 913.492188 571.921875 L 912.753906 572.769531 L 889.390625 596.132812 C 886.164062 599.359375 880.933594 599.359375 877.707031 596.132812 C 874.75 593.175781 874.503906 588.535156 876.96875 585.296875 L 877.707031 584.453125 L 901.070312 561.085938 C 904.296875 557.859375 909.527344 557.859375 912.753906 561.085938 Z M 778.40625 516.453125 C 782.589844 516.453125 786.042969 519.558594 786.589844 523.59375 L 786.667969 524.714844 L 786.667969 557.757812 C 786.667969 562.320312 782.96875 566.015625 778.40625 566.015625 C 774.222656 566.015625 770.769531 562.910156 770.222656 558.878906 L 770.144531 557.757812 L 770.144531 524.714844 C 770.144531 520.152344 773.84375 516.453125 778.40625 516.453125 Z M 778.40625 516.453125 " fill-opacity="1" fill-rule="nonzero"/></g><g fill="#ffffff" fill-opacity="1"><g transform="translate(945.921639, 850.16182)"><g><path d="M 161.21875 -92.96875 L 180.078125 -92.96875 L 180.078125 -22.046875 C 171.398438 -14.429688 161.128906 -8.585938 149.265625 -4.515625 C 137.410156 -0.441406 124.929688 1.59375 111.828125 1.59375 C 93.234375 1.59375 76.5 -2.476562 61.625 -10.625 C 46.75 -18.769531 35.0625 -30.054688 26.5625 -44.484375 C 18.0625 -58.921875 13.8125 -75.082031 13.8125 -92.96875 C 13.8125 -110.851562 18.0625 -127.007812 26.5625 -141.4375 C 35.0625 -155.863281 46.75 -167.148438 61.625 -175.296875 C 76.5 -183.441406 93.320312 -187.515625 112.09375 -187.515625 C 126.25 -187.515625 139.257812 -185.253906 151.125 -180.734375 C 162.988281 -176.222656 172.992188 -169.539062 181.140625 -160.6875 L 168.921875 -148.203125 C 154.222656 -162.722656 135.546875 -169.984375 112.890625 -169.984375 C 97.835938 -169.984375 84.242188 -166.660156 72.109375 -160.015625 C 59.984375 -153.378906 50.46875 -144.175781 43.5625 -132.40625 C 36.65625 -120.632812 33.203125 -107.488281 33.203125 -92.96875 C 33.203125 -78.445312 36.65625 -65.34375 43.5625 -53.65625 C 50.46875 -41.96875 59.941406 -32.757812 71.984375 -26.03125 C 84.023438 -19.300781 97.570312 -15.9375 112.625 -15.9375 C 131.738281 -15.9375 147.9375 -20.71875 161.21875 -30.28125 Z M 161.21875 -92.96875 "/></g></g></g><g fill="#ffffff" fill-opacity="1"><g transform="translate(1151.233919, 850.16182)"><g><path d="M 75.171875 -140.765625 C 93.410156 -140.765625 107.398438 -136.207031 117.140625 -127.09375 C 126.878906 -117.976562 131.75 -104.476562 131.75 -86.59375 L 131.75 0 L 113.6875 0 L 113.6875 -21.78125 C 109.4375 -14.519531 103.191406 -8.851562 94.953125 -4.78125 C 86.722656 -0.707031 76.941406 1.328125 65.609375 1.328125 C 50.023438 1.328125 37.628906 -2.390625 28.421875 -9.828125 C 19.210938 -17.265625 14.609375 -27.09375 14.609375 -39.3125 C 14.609375 -51.175781 18.898438 -60.738281 27.484375 -68 C 36.078125 -75.257812 49.757812 -78.890625 68.53125 -78.890625 L 112.890625 -78.890625 L 112.890625 -87.390625 C 112.890625 -99.429688 109.523438 -108.59375 102.796875 -114.875 C 96.066406 -121.164062 86.238281 -124.3125 73.3125 -124.3125 C 64.457031 -124.3125 55.957031 -122.847656 47.8125 -119.921875 C 39.664062 -117.003906 32.671875 -112.976562 26.828125 -107.84375 L 18.328125 -121.921875 C 25.410156 -127.941406 33.910156 -132.585938 43.828125 -135.859375 C 53.742188 -139.128906 64.191406 -140.765625 75.171875 -140.765625 Z M 68.53125 -13.546875 C 79.15625 -13.546875 88.273438 -15.976562 95.890625 -20.84375 C 103.503906 -25.71875 109.171875 -32.757812 112.890625 -41.96875 L 112.890625 -64.8125 L 69.0625 -64.8125 C 45.15625 -64.8125 33.203125 -56.488281 33.203125 -39.84375 C 33.203125 -31.695312 36.300781 -25.273438 42.5 -20.578125 C 48.695312 -15.890625 57.375 -13.546875 68.53125 -13.546875 Z M 68.53125 -13.546875 "/></g></g></g><g fill="#ffffff" fill-opacity="1"><g transform="translate(1307.940578, 850.16182)"><g><path d="M 98.28125 -140.765625 C 111.382812 -140.765625 123.242188 -137.800781 133.859375 -131.875 C 144.484375 -125.945312 152.804688 -117.582031 158.828125 -106.78125 C 164.847656 -95.976562 167.859375 -83.671875 167.859375 -69.859375 C 167.859375 -56.046875 164.847656 -43.738281 158.828125 -32.9375 C 152.804688 -22.132812 144.484375 -13.722656 133.859375 -7.703125 C 123.242188 -1.679688 111.382812 1.328125 98.28125 1.328125 C 86.59375 1.328125 76.097656 -1.148438 66.796875 -6.109375 C 57.503906 -11.066406 50.023438 -18.238281 44.359375 -27.625 L 44.359375 0 L 26.296875 0 L 26.296875 -197.078125 L 45.15625 -197.078125 L 45.15625 -113.15625 C 51 -122.1875 58.476562 -129.046875 67.59375 -133.734375 C 76.71875 -138.421875 86.945312 -140.765625 98.28125 -140.765625 Z M 96.953125 -15.40625 C 106.691406 -15.40625 115.539062 -17.660156 123.5 -22.171875 C 131.46875 -26.691406 137.707031 -33.113281 142.21875 -41.4375 C 146.738281 -49.757812 149 -59.234375 149 -69.859375 C 149 -80.484375 146.738281 -89.957031 142.21875 -98.28125 C 137.707031 -106.601562 131.46875 -113.019531 123.5 -117.53125 C 115.539062 -122.050781 106.691406 -124.3125 96.953125 -124.3125 C 87.035156 -124.3125 78.132812 -122.050781 70.25 -117.53125 C 62.375 -113.019531 56.175781 -106.601562 51.65625 -98.28125 C 47.144531 -89.957031 44.890625 -80.484375 44.890625 -69.859375 C 44.890625 -59.234375 47.144531 -49.757812 51.65625 -41.4375 C 56.175781 -33.113281 62.375 -26.691406 70.25 -22.171875 C 78.132812 -17.660156 87.035156 -15.40625 96.953125 -15.40625 Z M 96.953125 -15.40625 "/></g></g></g><g fill="#ffffff" fill-opacity="1"><g transform="translate(1488.020445, 850.16182)"><g><path d="M 147.9375 -64.015625 L 31.078125 -64.015625 C 32.140625 -49.492188 37.71875 -37.757812 47.8125 -28.8125 C 57.90625 -19.875 70.65625 -15.40625 86.0625 -15.40625 C 94.738281 -15.40625 102.707031 -16.953125 109.96875 -20.046875 C 117.226562 -23.148438 123.515625 -27.710938 128.828125 -33.734375 L 139.4375 -21.515625 C 133.25 -14.078125 125.503906 -8.410156 116.203125 -4.515625 C 106.910156 -0.617188 96.6875 1.328125 85.53125 1.328125 C 71.1875 1.328125 58.476562 -1.722656 47.40625 -7.828125 C 36.34375 -13.941406 27.710938 -22.398438 21.515625 -33.203125 C 15.316406 -44.003906 12.21875 -56.222656 12.21875 -69.859375 C 12.21875 -83.492188 15.179688 -95.710938 21.109375 -106.515625 C 27.046875 -117.316406 35.191406 -125.722656 45.546875 -131.734375 C 55.910156 -137.753906 67.554688 -140.765625 80.484375 -140.765625 C 93.410156 -140.765625 105.007812 -137.753906 115.28125 -131.734375 C 125.550781 -125.722656 133.601562 -117.359375 139.4375 -106.640625 C 145.28125 -95.929688 148.203125 -83.671875 148.203125 -69.859375 Z M 80.484375 -124.578125 C 67.023438 -124.578125 55.734375 -120.28125 46.609375 -111.6875 C 37.492188 -103.101562 32.316406 -91.90625 31.078125 -78.09375 L 130.15625 -78.09375 C 128.914062 -91.90625 123.734375 -103.101562 114.609375 -111.6875 C 105.492188 -120.28125 94.117188 -124.578125 80.484375 -124.578125 Z M 80.484375 -124.578125 "/></g></g></g><g fill="#ffffff" fill-opacity="1"><g transform="translate(576.273396, 1039.75818)"><g><path d="M 100.6875 0 L 89.578125 -32 L 41.859375 -32 L 30.75 0 L 4.53125 0 L 50.203125 -125.21875 L 81.140625 -125.21875 L 126.640625 0 Z M 65.671875 -105.9375 L 65.140625 -103.96875 C 64.546875 -101.84375 63.832031 -99.414062 63 -96.6875 C 62.175781 -93.957031 57.082031 -78.96875 47.71875 -51.71875 L 83.71875 -51.71875 L 71.359375 -87.71875 L 67.546875 -99.796875 Z M 65.671875 -105.9375 "/></g></g></g><g fill="#ffffff" fill-opacity="1"><g transform="translate(707.702312, 1039.75818)"><g><path d="M 36.265625 -96.15625 L 36.265625 -42.21875 C 36.265625 -25.332031 41.953125 -16.890625 53.328125 -16.890625 C 59.367188 -16.890625 64.238281 -19.476562 67.9375 -24.65625 C 71.644531 -29.84375 73.5 -36.492188 73.5 -44.609375 L 73.5 -96.15625 L 98.46875 -96.15625 L 98.46875 -21.5 C 98.46875 -13.332031 98.703125 -6.164062 99.171875 0 L 75.359375 0 C 74.648438 -8.53125 74.296875 -14.898438 74.296875 -19.109375 L 73.84375 -19.109375 C 70.53125 -11.816406 66.3125 -6.507812 61.1875 -3.1875 C 56.0625 0.125 49.972656 1.78125 42.921875 1.78125 C 32.734375 1.78125 24.910156 -1.34375 19.453125 -7.59375 C 14.003906 -13.84375 11.28125 -23.015625 11.28125 -35.109375 L 11.28125 -96.15625 Z M 36.265625 -96.15625 "/></g></g></g><g fill="#ffffff" fill-opacity="1"><g transform="translate(818.870382, 1039.75818)"><g><path d="M 75 0 C 74.769531 -0.882812 74.488281 -3.117188 74.15625 -6.703125 C 73.832031 -10.296875 73.671875 -13.273438 73.671875 -15.640625 L 73.3125 -15.640625 C 67.925781 -4.023438 57.675781 1.78125 42.5625 1.78125 C 31.363281 1.78125 22.710938 -2.585938 16.609375 -11.328125 C 10.515625 -20.066406 7.46875 -32.285156 7.46875 -47.984375 C 7.46875 -63.921875 10.679688 -76.226562 17.109375 -84.90625 C 23.535156 -93.59375 32.644531 -97.9375 44.4375 -97.9375 C 51.25 -97.9375 57.128906 -96.515625 62.078125 -93.671875 C 67.023438 -90.828125 70.832031 -86.585938 73.5 -80.953125 L 73.671875 -80.953125 L 73.5 -96.78125 L 73.5 -131.875 L 98.46875 -131.875 L 98.46875 -20.96875 C 98.46875 -15.050781 98.703125 -8.0625 99.171875 0 Z M 73.84375 -48.609375 C 73.84375 -58.972656 72.109375 -66.953125 68.640625 -72.546875 C 65.179688 -78.148438 60.078125 -80.953125 53.328125 -80.953125 C 46.628906 -80.953125 41.648438 -78.242188 38.390625 -72.828125 C 35.128906 -67.410156 33.5 -59.128906 33.5 -47.984375 C 33.5 -26.179688 40.046875 -15.28125 53.140625 -15.28125 C 59.710938 -15.28125 64.804688 -18.164062 68.421875 -23.9375 C 72.035156 -29.71875 73.84375 -37.941406 73.84375 -48.609375 Z M 73.84375 -48.609375 "/></g></g></g><g fill="#ffffff" fill-opacity="1"><g transform="translate(930.038441, 1039.75818)"><g><path d="M 12.703125 -113.484375 L 12.703125 -131.875 L 37.6875 -131.875 L 37.6875 -113.484375 Z M 12.703125 0 L 12.703125 -96.15625 L 37.6875 -96.15625 L 37.6875 0 Z M 12.703125 0 "/></g></g></g><g fill="#ffffff" fill-opacity="1"><g transform="translate(980.60173, 1039.75818)"><g><path d="M 104.0625 -48.171875 C 104.0625 -32.585938 99.734375 -20.363281 91.078125 -11.5 C 82.429688 -2.644531 70.46875 1.78125 55.1875 1.78125 C 40.195312 1.78125 28.4375 -2.660156 19.90625 -11.546875 C 11.375 -20.441406 7.109375 -32.648438 7.109375 -48.171875 C 7.109375 -63.628906 11.375 -75.785156 19.90625 -84.640625 C 28.4375 -93.503906 40.375 -97.9375 55.71875 -97.9375 C 71.414062 -97.9375 83.394531 -93.65625 91.65625 -85.09375 C 99.925781 -76.53125 104.0625 -64.222656 104.0625 -48.171875 Z M 77.9375 -48.171875 C 77.9375 -59.597656 76.066406 -67.890625 72.328125 -73.046875 C 68.597656 -78.203125 63.179688 -80.78125 56.078125 -80.78125 C 40.910156 -80.78125 33.328125 -69.910156 33.328125 -48.171875 C 33.328125 -37.441406 35.175781 -29.273438 38.875 -23.671875 C 42.582031 -18.078125 47.929688 -15.28125 54.921875 -15.28125 C 70.265625 -15.28125 77.9375 -26.242188 77.9375 -48.171875 Z M 77.9375 -48.171875 "/></g></g></g><g fill="#ffffff" fill-opacity="1"><g transform="translate(1091.769766, 1039.75818)"><g><path d="M 64.96875 0 L 35.109375 0 L 0.71875 -96.15625 L 27.109375 -96.15625 L 43.90625 -42.390625 C 44.789062 -39.429688 46.890625 -32.023438 50.203125 -20.171875 C 50.796875 -22.597656 52.007812 -26.863281 53.84375 -32.96875 C 55.6875 -39.070312 62.503906 -60.132812 74.296875 -96.15625 L 100.421875 -96.15625 Z M 64.96875 0 "/></g></g></g><g fill="#ffffff" fill-opacity="1"><g transform="translate(1192.98515, 1039.75818)"><g><path d="M 12.703125 -113.484375 L 12.703125 -131.875 L 37.6875 -131.875 L 37.6875 -113.484375 Z M 12.703125 0 L 12.703125 -96.15625 L 37.6875 -96.15625 L 37.6875 0 Z M 12.703125 0 "/></g></g></g><g fill="#ffffff" fill-opacity="1"><g transform="translate(1243.548394, 1039.75818)"><g><path d="M 93.75 -28.078125 C 93.75 -18.773438 89.941406 -11.472656 82.328125 -6.171875 C 74.722656 -0.867188 64.195312 1.78125 50.75 1.78125 C 37.53125 1.78125 27.410156 -0.304688 20.390625 -4.484375 C 13.367188 -8.660156 8.707031 -15.164062 6.40625 -24 L 28.34375 -27.28125 C 29.59375 -22.71875 31.742188 -19.488281 34.796875 -17.59375 C 37.847656 -15.695312 43.164062 -14.75 50.75 -14.75 C 57.738281 -14.75 62.832031 -15.632812 66.03125 -17.40625 C 69.226562 -19.1875 70.828125 -21.972656 70.828125 -25.765625 C 70.828125 -28.847656 69.535156 -31.289062 66.953125 -33.09375 C 64.378906 -34.90625 60.015625 -36.4375 53.859375 -37.6875 C 39.753906 -40.46875 30.242188 -43.054688 25.328125 -45.453125 C 20.410156 -47.859375 16.660156 -50.96875 14.078125 -54.78125 C 11.503906 -58.601562 10.21875 -63.300781 10.21875 -68.875 C 10.21875 -78.050781 13.753906 -85.203125 20.828125 -90.328125 C 27.910156 -95.453125 37.941406 -98.015625 50.921875 -98.015625 C 62.359375 -98.015625 71.554688 -95.789062 78.515625 -91.34375 C 85.472656 -86.90625 89.8125 -80.484375 91.53125 -72.078125 L 69.40625 -69.765625 C 68.695312 -73.671875 66.945312 -76.585938 64.15625 -78.515625 C 61.375 -80.441406 56.960938 -81.40625 50.921875 -81.40625 C 44.992188 -81.40625 40.546875 -80.648438 37.578125 -79.140625 C 34.617188 -77.628906 33.140625 -75.09375 33.140625 -71.53125 C 33.140625 -68.75 34.28125 -66.539062 36.5625 -64.90625 C 38.84375 -63.28125 42.679688 -61.9375 48.078125 -60.875 C 55.597656 -59.332031 62.273438 -57.742188 68.109375 -56.109375 C 73.953125 -54.484375 78.632812 -52.546875 82.15625 -50.296875 C 85.6875 -48.046875 88.5 -45.15625 90.59375 -41.625 C 92.695312 -38.101562 93.75 -33.585938 93.75 -28.078125 Z M 93.75 -28.078125 "/></g></g></g><g fill="#ffffff" fill-opacity="1"><g transform="translate(1344.763778, 1039.75818)"><g><path d="M 36.265625 -96.15625 L 36.265625 -42.21875 C 36.265625 -25.332031 41.953125 -16.890625 53.328125 -16.890625 C 59.367188 -16.890625 64.238281 -19.476562 67.9375 -24.65625 C 71.644531 -29.84375 73.5 -36.492188 73.5 -44.609375 L 73.5 -96.15625 L 98.46875 -96.15625 L 98.46875 -21.5 C 98.46875 -13.332031 98.703125 -6.164062 99.171875 0 L 75.359375 0 C 74.648438 -8.53125 74.296875 -14.898438 74.296875 -19.109375 L 73.84375 -19.109375 C 70.53125 -11.816406 66.3125 -6.507812 61.1875 -3.1875 C 56.0625 0.125 49.972656 1.78125 42.921875 1.78125 C 32.734375 1.78125 24.910156 -1.34375 19.453125 -7.59375 C 14.003906 -13.84375 11.28125 -23.015625 11.28125 -35.109375 L 11.28125 -96.15625 Z M 36.265625 -96.15625 "/></g></g></g><g fill="#ffffff" fill-opacity="1"><g transform="translate(1455.931859, 1039.75818)"><g><path d="M 34.921875 1.78125 C 25.617188 1.78125 18.359375 -0.75 13.140625 -5.8125 C 7.929688 -10.882812 5.328125 -18.007812 5.328125 -27.1875 C 5.328125 -37.144531 8.570312 -44.726562 15.0625 -49.9375 C 21.550781 -55.15625 30.957031 -57.820312 43.28125 -57.9375 L 63.984375 -58.296875 L 63.984375 -63.1875 C 63.984375 -69.46875 62.882812 -74.132812 60.6875 -77.1875 C 58.5 -80.238281 54.914062 -81.765625 49.9375 -81.765625 C 45.320312 -81.765625 41.929688 -80.710938 39.765625 -78.609375 C 37.609375 -76.503906 36.257812 -73.019531 35.71875 -68.15625 L 9.6875 -69.40625 C 11.289062 -78.769531 15.570312 -85.863281 22.53125 -90.6875 C 29.488281 -95.519531 38.984375 -97.9375 51.015625 -97.9375 C 63.160156 -97.9375 72.519531 -94.941406 79.09375 -88.953125 C 85.664062 -82.972656 88.953125 -74.472656 88.953125 -63.453125 L 88.953125 -28.4375 C 88.953125 -23.039062 89.554688 -19.320312 90.765625 -17.28125 C 91.984375 -15.238281 94.015625 -14.21875 96.859375 -14.21875 C 98.753906 -14.21875 100.59375 -14.394531 102.375 -14.75 L 102.375 -1.25 C 100.894531 -0.894531 99.5625 -0.566406 98.375 -0.265625 C 97.1875 0.0234375 96 0.257812 94.8125 0.4375 C 93.632812 0.625 92.378906 0.773438 91.046875 0.890625 C 89.710938 1.003906 88.15625 1.0625 86.375 1.0625 C 80.09375 1.0625 75.457031 -0.472656 72.46875 -3.546875 C 69.476562 -6.628906 67.6875 -11.164062 67.09375 -17.15625 L 66.5625 -17.15625 C 59.570312 -4.53125 49.023438 1.78125 34.921875 1.78125 Z M 63.984375 -44.515625 L 51.1875 -44.34375 C 45.382812 -44.101562 41.265625 -43.460938 38.828125 -42.421875 C 36.398438 -41.390625 34.550781 -39.804688 33.28125 -37.671875 C 32.007812 -35.546875 31.375 -32.707031 31.375 -29.15625 C 31.375 -24.59375 32.425781 -21.195312 34.53125 -18.96875 C 36.632812 -16.75 39.429688 -15.640625 42.921875 -15.640625 C 46.828125 -15.640625 50.394531 -16.707031 53.625 -18.84375 C 56.851562 -20.976562 59.382812 -23.925781 61.21875 -27.6875 C 63.0625 -31.445312 63.984375 -35.429688 63.984375 -39.640625 Z M 63.984375 -44.515625 "/></g></g></g><g fill="#ffffff" fill-opacity="1"><g transform="translate(1557.147244, 1039.75818)"><g><path d="M 12.703125 0 L 12.703125 -131.875 L 37.6875 -131.875 L 37.6875 0 Z M 12.703125 0 "/></g></g></g></svg>